<svg width="512" height="456" viewBox="0 0 512 456" fill="none" xmlns="http://www.w3.org/2000/svg">
<path d="M47.8701 24.5532V111.967H63.4801V40.1632H368.39V111.967H384V24.5532H47.8701Z" fill="#14B471"/>
<path d="M71.8049 0.618164V16.2282H392.325V103.642H407.935V0.618164H71.8049Z" fill="#14B471"/>
<path d="M56.195 152.553H40.585V424.163H56.195V152.553Z" fill="#14B471"/>
<path d="M328.139 360.097V423.673H479.654V360.097H328.139ZM464.044 408.063H343.749V375.706H464.044V408.063V408.063Z" fill="#14B471"/>
<path d="M447.48 383.577H360.065V399.187H447.48V383.577Z" fill="#14B471"/>
<path d="M71.8049 48.4878V111.968H87.4149V64.0978H173.885C160.641 75.7558 152.263 92.8318 152.263 111.968H167.873C167.873 87.6568 186.738 66.7368 210.877 64.0978H221.181C245.321 66.7368 264.186 87.6568 264.186 111.968H279.796C279.796 92.8328 271.42 75.7568 258.174 64.0978H344.456V111.968H360.066V48.4878H71.8049Z" fill="#14B471"/>
<path d="M431.87 88.0332H416.26V103.643H431.87V88.0332Z" fill="#14B471"/>
<path d="M447.866 56.813H416.26V72.423H447.866C456.962 72.423 464.091 79.274 464.127 88.033H447.48V103.643H464.13V111.968H479.74V88.099C479.74 70.847 465.441 56.813 447.866 56.813Z" fill="#14B471"/>
<path d="M40.151 120.293C29.452 120.293 20.224 113.299 16.997 103.643H32.26V88.0332H17.218C20.648 78.7332 29.725 72.0592 39.545 72.0592V56.4492C17.691 56.4492 0 74.2402 0 96.1062C0 96.1902 0 96.2732 0 96.3572V415.867C0 437.657 18.012 455.383 40.151 455.383H512V120.293H40.151ZM496.39 439.772H40.151C26.618 439.772 15.609 429.048 15.609 415.867V127.407C22.374 132.726 30.897 135.902 40.151 135.902H496.39V439.772Z" fill="#14B471"/>
<path d="M479.74 328.423H464.13V344.033H479.74V328.423Z" fill="#14B471"/>
<path d="M455.805 328.423H440.195V344.033H455.805V328.423Z" fill="#14B471"/>
<path d="M431.87 328.423H416.26V344.033H431.87V328.423Z" fill="#14B471"/>
</svg>
