<?xml version="1.0" standalone="no"?>
<!DOCTYPE svg PUBLIC "-//W3C//DTD SVG 20010904//EN"
 "http://www.w3.org/TR/2001/REC-SVG-20010904/DTD/svg10.dtd">
<svg version="1.0" xmlns="http://www.w3.org/2000/svg"
 width="452.000000pt" height="452.000000pt" viewBox="0 0 452.000000 452.000000"
 preserveAspectRatio="xMidYMid meet">

<g transform="translate(0.000000,452.000000) scale(0.100000,-0.100000)"
fill="#24b145" stroke="none">
<path d="M1324 4356 c-54 -25 -94 -69 -113 -125 -6 -19 -11 -90 -11 -157 l0
-124 -139 0 -139 0 -48 -32 c-29 -20 -57 -50 -71 -77 -21 -40 -23 -58 -23
-178 l0 -133 -133 0 c-199 0 -283 -28 -382 -126 -53 -54 -98 -136 -114 -212
-8 -38 -11 -430 -11 -1360 0 -1409 -2 -1361 51 -1464 52 -102 175 -193 292
-218 36 -7 576 -10 1792 -8 l1740 3 47 28 c31 18 57 44 75 75 l28 47 3 346 3
347 39 6 c50 8 118 60 144 111 20 38 21 55 21 380 l0 340 -28 47 c-29 50 -86
91 -144 103 l-33 7 0 319 c0 198 -4 337 -11 363 -13 51 -58 109 -102 134 -18
9 -63 19 -102 22 l-70 5 -5 286 -5 286 -29 41 c-18 26 -47 51 -79 67 -47 23
-62 25 -179 25 l-128 0 0 333 c0 205 -4 347 -11 371 -14 50 -82 118 -135 134
-31 9 -268 12 -990 12 l-949 0 -51 -24z m1972 -141 l24 -24 -2 -683 -3 -683
-137 -3 -138 -3 0 466 c0 303 -4 481 -11 509 -13 51 -57 109 -102 134 -29 16
-97 17 -807 22 l-775 5 -3 118 c-3 113 -2 118 22 142 l25 25 941 0 941 0 25
-25z m-420 -426 c18 -20 19 -43 19 -493 l0 -471 -70 0 -70 0 -5 197 c-3 136
-9 201 -17 209 -7 7 -42 16 -79 20 -175 22 -303 148 -321 319 -11 107 18 100
-426 100 -446 0 -415 8 -429 -107 -4 -37 -19 -91 -33 -119 -49 -99 -164 -179
-275 -191 -37 -3 -71 -14 -85 -25 -24 -19 -25 -21 -27 -211 l-3 -192 -67 -3
-68 -3 0 476 c0 462 1 476 20 495 20 20 33 20 968 20 l949 0 19 -21z m-669
-308 c40 -168 182 -312 350 -355 l48 -12 3 -147 3 -147 -703 2 -703 3 0 144 0
144 52 13 c84 21 153 62 219 128 66 66 102 128 129 219 l16 57 287 0 287 0 12
-49z m-1429 -373 l-3 -283 -136 1 c-116 1 -143 5 -185 23 -237 105 -222 439
23 527 24 8 85 13 171 14 l132 0 -2 -282z m2942 262 c19 -19 20 -33 20 -285
l0 -266 -137 3 -138 3 -3 283 -2 282 120 0 c107 0 122 -2 140 -20z m-3292
-664 l57 -21 1751 -3 1751 -2 19 -21 c18 -20 19 -44 22 -350 l3 -329 -443 0
c-342 0 -458 -4 -509 -14 -300 -64 -471 -382 -359 -666 50 -128 159 -231 300
-287 40 -16 98 -18 525 -23 l480 -5 3 -312 c3 -356 -1 -377 -60 -388 -18 -3
-807 -4 -1753 -3 l-1720 3 -47 23 c-25 13 -65 43 -88 68 -81 88 -75 -19 -78
1267 l-2 1148 46 -31 c25 -18 71 -42 102 -54z m3771 -881 c16 -8 31 -25 35
-37 3 -13 6 -155 6 -316 l0 -293 -25 -25 -25 -25 -547 3 -548 3 -63 29 c-80
37 -152 114 -182 194 -30 79 -26 205 10 277 47 96 148 174 251 194 24 5 273 9
552 10 427 1 512 -1 536 -14z"/>
<path d="M3085 1674 c-103 -56 -146 -184 -96 -283 68 -132 233 -160 336 -56
68 68 82 156 40 242 -38 75 -89 107 -179 111 -51 2 -79 -2 -101 -14z m139
-140 c61 -61 -14 -158 -82 -107 -54 40 -32 123 33 123 18 0 41 -7 49 -16z"/>
</g>
</svg>
